<svg xmlns="http://www.w3.org/2000/svg" xmlns:xlink="http://www.w3.org/1999/xlink" version="1.1" x="0px" y="0px" viewBox="0 0 72 90" enable-background="new 0 0 72 72" xml:space="preserve"><g><path fill="#000000" d="M68.3,16.2l-0.7-0.6c-0.4-0.1-0.6-0.5-0.6-1V11c0-0.7-0.4-1.2-0.9-1.5c-2.7-1.2-6.1-1.8-9.6-1.8   c-6.8,0-15.1,2.4-19.8,7.7c-0.3,0.4-0.9,0.4-1.2,0c-4.8-5.3-13.1-7.7-19.8-7.7C12,7.7,8.7,8.4,6,9.5C5.4,9.8,5.1,10.3,5.1,11v3.8   c0,0.5-0.3,0.9-0.7,1l-1,0.6c-1.6,0.5-2.7,2.1-2.7,4v36.4c0,1.5,1,2.7,2.3,2.7H28c0.8,0,1.5,0.5,1.9,1.3c1.1,2.1,3.4,3.5,6.1,3.5   c2.6,0,4.9-1.4,6.1-3.5c0.4-0.8,1.1-1.3,1.9-1.3h25.1c1.3,0,2.3-1.2,2.3-2.7v-36C71.3,18.7,70.1,16.8,68.3,16.2z M56.4,10.9   c2.6,0,5.1,0.4,7.2,1c0.4,0.1,0.6,0.5,0.6,1V50c0,0.7-0.5,1.2-1.1,1c-2.6-0.8-5.4-1.2-8.2-1.2c-6.3,0-12,2.1-16.2,5.8   c-0.6,0.5-1.4,0.1-1.4-0.8V19.5c0-0.2,0.1-0.5,0.2-0.7C40.9,14.1,48.6,10.9,56.4,10.9z M7.7,12.9c0-0.5,0.3-0.9,0.6-1   c2.1-0.7,4.6-1,7.2-1c7.9,0,15.5,3.2,18.9,7.9c0.1,0.2,0.2,0.4,0.2,0.7v35.4c0,0.9-0.8,1.3-1.4,0.8C29,52,23.4,49.9,17,49.9   c-2.8,0-5.6,0.4-8.2,1.2c-0.6,0.2-1.1-0.3-1.1-1V12.9z"/></g><text x="0" y="87" fill="#000000" font-size="5px" font-weight="bold" font-family="'Helvetica Neue', Helvetica, Arial-Unicode, Arial, Sans-serif">Created by Creative Stall</text><text x="0" y="92" fill="#000000" font-size="5px" font-weight="bold" font-family="'Helvetica Neue', Helvetica, Arial-Unicode, Arial, Sans-serif">from the Noun Project</text></svg>